<svg width="33" height="32" viewBox="0 0 33 32" fill="none" xmlns="http://www.w3.org/2000/svg">
<path fill-rule="evenodd" clip-rule="evenodd" d="M2.5 1C3.05228 1 3.5 1.44772 3.5 2V29H30.5C31.0523 29 31.5 29.4477 31.5 30C31.5 30.5523 31.0523 31 30.5 31H3.5C2.96957 31 2.46086 30.7893 2.08579 30.4142C1.71071 30.0391 1.5 29.5304 1.5 29V2C1.5 1.44772 1.94772 1 2.5 1Z" fill="black"/>
<path fill-rule="evenodd" clip-rule="evenodd" d="M7.75 15C7.61193 15 7.5 15.1119 7.5 15.25V24.75C7.5 24.8881 7.61193 25 7.75 25H10.25C10.3881 25 10.5 24.8881 10.5 24.75V15.25C10.5 15.1119 10.3881 15 10.25 15H7.75ZM5.5 15.25C5.5 14.0074 6.50736 13 7.75 13H10.25C11.4926 13 12.5 14.0074 12.5 15.25V24.75C12.5 25.9926 11.4926 27 10.25 27H7.75C6.50736 27 5.5 25.9926 5.5 24.75V15.25Z" fill="black"/>
<path fill-rule="evenodd" clip-rule="evenodd" d="M16.75 12C16.6119 12 16.5 12.1119 16.5 12.25V24.75C16.5 24.8881 16.6119 25 16.75 25H19.25C19.3881 25 19.5 24.8881 19.5 24.75V12.25C19.5 12.1119 19.3881 12 19.25 12H16.75ZM14.5 12.25C14.5 11.0074 15.5074 10 16.75 10H19.25C20.4926 10 21.5 11.0074 21.5 12.25V24.75C21.5 25.9926 20.4926 27 19.25 27H16.75C15.5074 27 14.5 25.9926 14.5 24.75V12.25Z" fill="black"/>
<path fill-rule="evenodd" clip-rule="evenodd" d="M25.7275 8C25.5895 8 25.4775 8.11193 25.4775 8.25V24.75C25.4775 24.8881 25.5895 25 25.7275 25H28.2275C28.3656 25 28.4775 24.8881 28.4775 24.75V8.25C28.4775 8.11193 28.3656 8 28.2275 8H25.7275ZM23.4775 8.25C23.4775 7.00736 24.4849 6 25.7275 6H28.2275C29.4702 6 30.4775 7.00736 30.4775 8.25V24.75C30.4775 25.9926 29.4702 27 28.2275 27H25.7275C24.4849 27 23.4775 25.9926 23.4775 24.75V8.25Z" fill="black"/>
</svg>
