<svg width="41" height="41" viewBox="0 0 41 41" fill="none" xmlns="http://www.w3.org/2000/svg">
<path d="M20.5 26.75C23.2614 26.75 25.5 24.5114 25.5 21.75C25.5 18.9886 23.2614 16.75 20.5 16.75C17.7386 16.75 15.5 18.9886 15.5 21.75C15.5 24.5114 17.7386 26.75 20.5 26.75Z" fill="black"/>
<path d="M34.25 11.75H29.6406C29.4062 11.75 29.1156 11.5984 28.8891 11.3594L26.8625 8.16094C26.8305 8.11018 26.7947 8.06187 26.7555 8.01641C26.0555 7.2 25.1094 6.75 24.0938 6.75H16.9062C15.8906 6.75 14.9445 7.2 14.2445 8.01641C14.2053 8.06187 14.1695 8.11018 14.1375 8.16094L12.1109 11.3641C11.9375 11.5531 11.6938 11.7547 11.4375 11.7547V11.1297C11.4375 10.7982 11.3058 10.4802 11.0714 10.2458C10.837 10.0114 10.519 9.87969 10.1875 9.87969H8.3125C7.98098 9.87969 7.66304 10.0114 7.42862 10.2458C7.1942 10.4802 7.0625 10.7982 7.0625 11.1297V11.7547H6.75C5.75576 11.7557 4.80253 12.1511 4.09949 12.8542C3.39645 13.5572 3.00103 14.5104 3 15.5047V30.5C3.00103 31.4942 3.39645 32.4475 4.09949 33.1505C4.80253 33.8535 5.75576 34.249 6.75 34.25H34.25C35.2442 34.249 36.1975 33.8535 36.9005 33.1505C37.6035 32.4475 37.999 31.4942 38 30.5V15.5C37.999 14.5058 37.6035 13.5525 36.9005 12.8495C36.1975 12.1465 35.2442 11.751 34.25 11.75ZM20.5 29.25C19.0166 29.25 17.5666 28.8101 16.3332 27.986C15.0999 27.1619 14.1386 25.9906 13.5709 24.6201C13.0032 23.2497 12.8547 21.7417 13.1441 20.2868C13.4335 18.832 14.1478 17.4956 15.1967 16.4467C16.2456 15.3978 17.582 14.6835 19.0368 14.3941C20.4917 14.1047 21.9997 14.2532 23.3701 14.8209C24.7406 15.3886 25.9119 16.3499 26.736 17.5832C27.5601 18.8166 28 20.2666 28 21.75C27.9977 23.7384 27.2068 25.6448 25.8008 27.0508C24.3948 28.4568 22.4884 29.2477 20.5 29.25Z" fill="black"/>
</svg>
