<svg width="32" height="32" viewBox="0 0 32 32" fill="none" xmlns="http://www.w3.org/2000/svg">
<path d="M8.16625 23.8345C8.21935 23.8877 8.28241 23.9299 8.35181 23.9586C8.42122 23.9874 8.49562 24.0022 8.57075 24.0022C8.64588 24.0022 8.72028 23.9874 8.78969 23.9586C8.85909 23.9299 8.92215 23.8877 8.97524 23.8345L16.0017 16.8081L23.0311 23.8345C23.1384 23.9418 23.2839 24.0021 23.4356 24.0021C23.5873 24.0021 23.7328 23.9418 23.8401 23.8345C23.9474 23.7273 24.0076 23.5818 24.0076 23.4301C24.0076 23.2783 23.9474 23.1328 23.8401 23.0256L16.8107 15.9991L23.8372 8.9697C23.9445 8.86242 24.0048 8.71692 24.0048 8.56521C24.0048 8.41349 23.9445 8.26799 23.8372 8.16071C23.73 8.05343 23.5845 7.99316 23.4327 7.99316C23.281 7.99316 23.1355 8.05343 23.0282 8.16071L16.0017 15.1901L8.97239 8.16357C8.86301 8.06991 8.72233 8.02096 8.57844 8.02652C8.43455 8.03208 8.29805 8.09173 8.19623 8.19355C8.09441 8.29537 8.03476 8.43186 8.0292 8.57575C8.02365 8.71964 8.07259 8.86033 8.16625 8.9697L15.1928 15.9991L8.16625 23.0284C8.05977 23.1355 8 23.2804 8 23.4315C8 23.5825 8.05977 23.7274 8.16625 23.8345Z" fill="#FF3225"/>
</svg>
