<svg width="24" height="24" viewBox="0 0 24 24" fill="none" xmlns="http://www.w3.org/2000/svg">
<path d="M20.5746 7.40095C20.7137 7.98595 20.5501 8.63395 20.1574 9.05695L18.0628 11.3609L19.2165 12.6299L21.311 10.3259C22.3419 9.22795 22.5546 7.37395 21.8101 6.03295L22.301 5.49295C24.4119 3.06295 21.2456 -0.411052 19.0365 1.90195L16.9419 4.20595L7.97464 14.0699L6.76373 18.9929L11.231 17.6789L20.5828 7.39195L20.5746 7.40095ZM20.1983 3.17995C20.8119 2.51395 21.7774 3.53995 21.1474 4.23295L20.7465 4.67395L19.7974 3.62995L20.2065 3.17995H20.1983ZM9.08737 16.4549L9.43919 15.0149L18.6356 4.89895L19.5846 5.94295L19.0528 6.52795L10.3801 16.0679L9.08737 16.4459V16.4549ZM23.1846 18.7409C23.2256 20.9369 21.4665 22.8809 19.4701 22.8359H4.53828C1.29828 22.9079 -0.428084 18.3269 1.91192 15.8519C2.83646 14.7539 4.22737 14.5649 5.5201 14.6549V16.4549H4.53828C3.42555 16.4279 2.44373 17.5259 2.4601 18.7409C2.4601 20.0099 3.39282 21.0359 4.53828 21.0359H19.4619C20.5746 21.0629 21.5646 19.9649 21.5401 18.7409C21.5401 17.4809 20.6074 16.4549 19.4619 16.4549H15.281V14.6549H19.4619C21.5074 14.6549 23.1765 16.4909 23.1765 18.7409H23.1846Z" fill="#FF3225"/>
</svg>
