<svg width="33" height="32" viewBox="0 0 33 32" fill="none" xmlns="http://www.w3.org/2000/svg">
<path fill-rule="evenodd" clip-rule="evenodd" d="M2.5 16C2.5 15.4477 2.94772 15 3.5 15H29.5C30.0523 15 30.5 15.4477 30.5 16C30.5 16.5523 30.0523 17 29.5 17H3.5C2.94772 17 2.5 16.5523 2.5 16Z" fill="black"/>
<path fill-rule="evenodd" clip-rule="evenodd" d="M23.5 9C23.5 7.89543 24.3954 7 25.5 7C26.6046 7 27.5 7.89543 27.5 9V23C27.5 24.1046 26.6046 25 25.5 25C24.3954 25 23.5 24.1046 23.5 23V9Z" fill="black"/>
<path fill-rule="evenodd" clip-rule="evenodd" d="M5.5 9C5.5 7.89543 6.39543 7 7.5 7C8.60457 7 9.5 7.89543 9.5 9V23C9.5 24.1046 8.60457 25 7.5 25C6.39543 25 5.5 24.1046 5.5 23V9Z" fill="black"/>
<path fill-rule="evenodd" clip-rule="evenodd" d="M1.5 12.5C1.5 11.6716 2.17157 11 3 11C3.82843 11 4.5 11.6716 4.5 12.5V19.5C4.5 20.3284 3.82843 21 3 21C2.17157 21 1.5 20.3284 1.5 19.5V12.5Z" fill="black"/>
<path fill-rule="evenodd" clip-rule="evenodd" d="M28.5 12.5C28.5 11.6716 29.1716 11 30 11C30.8284 11 31.5 11.6716 31.5 12.5V19.5C31.5 20.3284 30.8284 21 30 21C29.1716 21 28.5 20.3284 28.5 19.5V12.5Z" fill="black"/>
</svg>
