<svg width="341" height="348" viewBox="0 0 341 348" fill="none" xmlns="http://www.w3.org/2000/svg">
<g clip-path="url(#clip0_2008_1575)">
<g opacity="0.13">
<path d="M94.3756 295.879C105.068 303.226 115.761 310.572 126.454 317.918C141.159 328.021 156.481 338.381 174.073 341.371C199.659 345.719 225.874 333.258 244.001 314.697C257.093 301.293 266.865 284.673 272.211 266.72C275.802 254.659 277.448 241.973 282.468 230.433C292.442 207.508 314.34 191.985 327.209 170.549C346.586 138.272 341.551 93.3059 315.516 66.1061C305.533 55.6775 292.234 47.5972 277.802 47.0778C266.693 46.6781 255.92 50.7253 245.833 55.394C226.031 64.5586 207.53 76.3324 187.786 85.6196C168.042 94.9068 146.455 101.748 124.696 100.087C106.109 98.6679 88.5584 91.1598 70.2459 87.6722C51.9335 84.1847 30.7925 85.6459 17.8533 99.0579C13.7406 103.321 10.7328 108.533 8.28449 113.925C1.67793 128.476 -1.07517 144.753 0.378653 160.666C1.50107 172.951 5.46325 185.587 14.5259 193.962C31.0595 209.243 61.3224 207.996 71.0809 228.279C74.3662 235.107 74.3809 242.969 75.2838 250.492C77.3852 268.003 84.7515 284.849 96.1827 298.286" fill="#FDACA4"/>
</g>
<path opacity="0.25" d="M101.26 194.766C106.716 193.635 108.971 189.332 113.016 185.898C115.953 183.567 113.768 184.769 120.211 185.068C122.481 185.201 124.41 185.277 126.21 186.325C126.345 186.406 128.82 188.167 128.775 188.176C125.724 188.809 120.06 194.461 116.585 195.087C116.078 195.192 115.714 195.957 116.071 196.409C120.381 202.836 125.409 199.769 129.653 193.216C132.496 188.569 130.244 189.352 135.382 191.377C145.006 195.752 144.691 196.91 145.764 199.045C162.295 232.496 181.704 248.755 192.724 288.018C193.615 291.051 192.356 286.166 186.393 278.753C179.913 270.652 172.094 264.84 163.165 260.335C160.364 259.129 163.675 268.155 165.093 270.853C171.41 283.108 188.551 288.399 193.872 295.324C196.872 298.516 200.201 325.067 201.742 339.055C202.356 338.913 202.971 338.775 203.586 338.64C202.125 324.908 200.24 311.417 197.39 298.572C197.566 298.399 197.608 298.115 197.498 297.836C196.863 296.372 196.997 296.957 197.421 296.925C198.344 296.733 198.059 295.788 197.992 294.947C210.342 287.744 222.207 274.42 214.832 261.819C211.397 255.558 211.333 258.954 209.527 261.806C205.376 268.594 202.155 273.68 199.892 278.575C193.572 292.373 198.54 301.562 194.177 286.092C190.112 272.193 185.942 262.765 179.113 250.898C171.076 236.612 172.104 242.989 175.786 236.733C178.647 231.606 182.371 233.415 187.537 235.421C187.497 235.455 191.216 244.524 193.803 248.497C198.567 256.466 202.482 251.513 202.147 246.915C201.596 242.589 196.972 239.092 193.067 237.05C189.926 235.437 196.272 239.682 206.937 233.172C214.681 236.906 218.068 227.468 214.015 224.66C210.087 222.315 205.19 231.372 205.378 232.186C190.958 239.687 187.257 231.118 179.751 231.826C178.269 231.999 177.208 232.646 177.826 232.198C180.776 229.684 188.296 230.137 188.778 215.747C188.781 215.087 187.89 214.265 187.003 215.446C185.974 216.804 184.416 218.346 183.17 219.494C177.156 224.886 179.877 225.354 179.86 218.981C180.398 206.649 182.648 204.841 191.918 204.736C193.025 204.736 194.919 204.679 196.194 204.527C196.083 204.843 200.037 210.589 202.547 210.069C207.021 209.14 203.071 195.974 197.036 202.724C196.988 202.718 187.318 203.361 186.387 203.554C185.655 203.706 185.04 204.338 188.262 200.865C190.358 198.703 192.939 196.876 195.345 195.178C208.659 185.421 204.266 185.189 207.045 184.445C210.643 183.485 216.301 184.561 216.026 178.909C215.644 174.438 209.847 172.098 207.208 175.849C206.02 177.609 206.319 179.744 206.192 180.237C206.331 180.253 206.775 179.807 204.982 183.441C203.664 184.314 206.032 185.791 194.678 193.745C189.384 197.386 187.411 199.461 186.993 199.946C187.354 199.465 188.719 197.407 189.359 193.745C197.552 192.045 199.678 183.722 191.266 183.074C185.66 182.476 187.962 188.618 187.735 192.004C187.619 192.568 187.743 192.688 187.799 192.769C186.802 197.138 185.221 200.2 182.544 203.908C179.836 207.678 179.519 209.46 180.615 206.25C181.359 202.777 182.156 200.096 180.818 196.784C180.351 195.737 178.334 192.572 177.215 192.804C176.079 193.137 176.974 193.65 176.094 198.41C174.334 207.419 177.457 207.894 178.157 213.461C178.211 213.93 177.963 229.138 175.868 231.832C175.835 231.9 175.807 231.967 175.782 232.033C175.822 231.293 175.814 230.041 175.651 228.058C174.945 221.333 170.928 210.265 169.033 212.397C168.402 212.979 169.23 213.591 168.63 217.998C167.53 225.521 166.45 227.696 171.037 235.047C172.497 237.379 172.663 237.876 172.842 238.025C171.279 239.267 173.163 240.88 166.909 231.187C165.578 229.12 151.265 207.084 151.151 204.771C151.064 204.181 169.273 188.248 158.15 165.777C157.993 165.456 157.66 165.266 157.301 165.293C155.417 165.684 158.912 165.523 152.021 180.17C149.291 186.032 146.203 192.629 147.697 198.904C141.892 187.388 137.326 176.36 133.257 163.085C133.452 163.041 133.626 162.851 133.656 162.487C137.252 158.139 135.529 157.167 140.196 153.826C142.392 152.371 141.476 152.619 142.672 154.033C145.602 157.657 150.036 158.906 153.531 158.181C158.559 157.138 162.115 151.764 161.22 150.811C160.203 149.356 160.509 152.59 151.698 150.11C150.143 149.644 148.556 149.175 146.884 149.05C147.633 148.853 150.199 145.649 150.679 145.03C152.98 142.903 157.49 142.095 160.946 141.157C166.949 139.32 165.968 138.516 167.107 138.67C168.173 138.83 170.066 139.236 171.425 138.808C174.435 137.85 172.365 132.526 169.462 133.6C165.825 135.155 168.59 137.215 159.046 139.882C157.01 140.321 154.495 141.061 152.347 142.048C153.482 141.338 155.57 137.397 156.81 135.176C159.4 130.542 158.465 133.153 162.21 128.461C164.941 124.787 162.348 122.236 160.679 122.137C158.023 122.078 157.51 128.095 157.371 130.754C156.492 132.115 155.699 133.486 154.833 134.947C145.791 150.696 144.078 148.495 141.142 150.634C140.882 150.798 140.756 151.13 140.828 151.461C136.153 154.061 137.424 155.987 139.285 148.041C140.759 141.765 139.827 145.222 141.955 142.017C147.227 133.662 142.256 131.986 140.306 133.39C137.304 134.723 138.294 139.463 138.991 142.53C137.162 148.371 136.552 156.116 132.666 161.091C132.513 157.767 131.212 153.517 129.738 150.233C125.828 134.246 125.158 122.993 124.942 122.44C124.411 114.138 124.148 120.916 131.656 111.622C138.375 103.259 133.84 94.0753 132.307 94.3932C131.813 94.4957 127.396 97.8264 124.381 102.318C123.486 103.673 123.266 106.724 123.776 90.7389C124.06 88.8426 128.322 83.6477 129.444 82.301C129.991 81.6351 129.506 81.8771 131.416 81.6918C131.796 81.6401 137.453 80.7061 138.505 81.8973C139.204 82.4795 143.45 84.9506 145.084 84.6116C148.413 83.921 148.891 76.9761 144.973 76.0204C142.045 75.0043 137.392 78.3414 134.847 78.753C129.89 79.8164 132.103 79.6358 134.341 75.8091C134.917 75.4843 134.782 75.201 136.958 73.2032C139.739 70.6307 143.144 67.2734 140.598 63.8388C140.036 62.7864 138.981 62.0398 137.683 62.5105C134.653 64.0362 132.896 73.2902 132.91 74.6411C130.22 79.0361 126.777 82.0183 123.742 86.897C124.045 86.0204 123.913 85.4218 124.475 74.8226C124.656 71.751 131.806 68.5707 126.709 53.4202C124.834 47.8679 125.343 47.9965 124.889 47.8032C123.769 47.3168 119.152 56.1789 118.16 60.8021C117.384 64.4191 118.946 63.5688 114.741 60.7824C114.011 60.3003 110.723 58.4626 110.136 58.5846C109.32 58.7539 110.182 59.2159 111.208 62.975C111.18 63.1522 112.323 71.825 119.161 74.3042C126.012 76.7844 120.591 67.054 121.946 107.136C121.335 108.868 121.019 110.596 121.009 112.27C120.927 116.582 122.242 116.36 120.459 114.589C117.771 111.745 114.246 109.422 111.238 106.648C108.032 103.421 109.769 105.245 108.653 99.6791C106.77 90.3399 101.384 94.1391 101.419 97.3123C101.506 100.34 107.665 105.686 108.096 105.68C109.019 108.112 114.286 109.776 106.108 107.121C93.1042 102.863 99.3381 106.352 95.7572 102.821C91.2143 97.9934 88.428 100.373 89.6669 105.318C90.6448 107.693 91.9543 107.451 94.4087 107.183C96.5199 106.804 96.5254 107.103 96.882 106.719C97.5531 106.429 96.5539 106.061 104.755 108.512C115.195 111.658 113.155 110.377 110.731 111.338C105.981 113.25 100.901 118.999 98.4191 120.34C96.4945 121.292 101.117 125.731 105.772 124.784C110.497 123.804 115.289 118.313 116.572 113.603C116.58 113.648 122.64 117.595 122.75 122.518C122.783 122.747 122.951 122.985 123.2 123.156C126.762 158.974 130.759 140.942 116 136.112C112.594 134.74 110.059 159.279 131.295 163.041C131.65 166.048 138.072 182.986 143.079 193.575C142.666 192.807 136.916 190.194 136.141 189.845C124.197 184.243 125.294 182.274 117.303 175.079C113.181 171.425 111.279 171.168 110.474 170.252C107.246 165.229 103.655 164.052 103.4 166.319C102.648 168.944 109.72 171.982 111.479 173.019C112.355 172.314 123.413 183.686 123.716 183.967C121.776 182.768 120.53 184.61 110.252 181.282C104.183 179.352 106.046 180.095 104 178.514C102.207 177.213 98.1786 174.472 95.9604 174.37C92.2028 173.982 92.0727 181.761 101.174 182.073C109.127 182.692 103.157 180.576 108.93 182.623C114.688 184.623 113.384 183.215 111.219 185.25C107.447 188.508 105.29 193.046 98.9556 193.296C98.6943 192.603 93.4594 192.768 92.9768 197.325C92.0915 202.391 100.158 203.474 99.8908 194.785C99.9463 195.033 101.017 194.817 101.26 194.766Z" fill="#FC8686"/>
<path opacity="0.25" d="M198.039 341.299C197.786 341.066 197.528 340.834 197.263 340.604C196.65 340.751 196.037 340.898 195.424 341.043C195.684 341.27 195.939 341.502 196.193 341.736C196.809 341.593 197.425 341.448 198.039 341.299Z" fill="#FC8686"/>
<path opacity="0.25" d="M203.709 339.81C203.684 339.578 203.661 339.346 203.636 339.114C203.021 339.249 202.407 339.387 201.793 339.529C201.822 339.798 201.851 340.06 201.879 340.319C202.49 340.154 203.1 339.984 203.709 339.81Z" fill="#FC8686"/>
<path opacity="0.25" d="M196.823 340.224C191.957 336.105 185.421 332.429 181.208 330.301C179.113 328.908 179.798 329.412 180.703 327.542C186.555 315.096 169.085 297.423 170.805 303.585C172.804 312.397 171.861 318.58 174.585 324.805C165.195 314.462 162.49 297.532 163.069 297.412C163.359 297.352 163.582 297.124 163.637 296.93C164.518 293.971 167.284 288.607 165.625 284.798C163.448 279.814 153.581 280.417 156.274 287.927C157.713 291.851 161.316 295.502 161.348 296.043C163.99 320.635 176.343 327.013 173.928 326.752C166.116 322.931 160.464 319.986 154.635 314.671C158.142 304.104 145.253 291.614 144.359 292.021C143.302 292.472 144.957 303.168 145.257 304.473C142.542 300.886 140.22 297.813 136.02 291.309C136.18 291.115 136.192 290.97 135.98 290.49C135.433 289.279 138.977 282.78 139.964 275.924C141.375 266.565 135.615 256.005 134.326 256.151C132.702 256.31 134.992 256.696 132.892 270.79C132.258 275.648 131.289 280.449 132.928 286.579C132.476 285.524 123.691 271.35 123.087 270.383C122.515 269.484 125.719 272.193 118.728 260.439C115.77 255.429 110.645 248.225 107.49 253.094C103.372 259.636 109.155 264.632 115.858 267.99C122.318 271.182 118.953 266.757 126.659 279.397C132.245 288.569 138.315 298.769 145.427 307.347C143.705 305.31 133.382 303.354 131.056 302.083C126.137 299.272 121.762 291.985 121.408 291.768C120.914 287.597 122.575 280.82 115.905 281.14C109.194 281.498 112.037 286.522 118.056 291.173C120.862 293.329 119.309 291.615 122.065 295.117C129.406 304.453 131.492 302.804 126.793 302.468C113.875 301.509 117.951 302.947 117.349 301.409C117.159 300.98 116.746 300.816 116.411 300.885C115.987 300.973 114.213 299.15 109.136 299.438C91.1579 300.718 103.213 319.116 116.25 303.663C126.562 303.773 139.789 303.92 147.601 310.622C149.424 313.778 148.659 308.183 133.435 315.611C131.397 316.605 128.957 317.87 126.795 318.544C123.769 319.601 136.977 334.55 153.464 317.286C153.709 317.389 154.111 317.293 154.322 317.007C155.029 316.058 154.071 318.704 170.615 326.944C168.936 326.403 161.469 330.472 159.933 331.332C152.034 335.759 152.121 334.652 151.593 335.336C150.903 336.311 153.335 340.185 156.819 341.23C162.625 343.045 170.436 338.975 174.693 334.643C178.816 330.513 177.073 329.886 178.294 330.667C184.395 333.666 190.183 336.605 194.978 340.664C195.594 340.519 196.209 340.372 196.823 340.224Z" fill="#FC8686"/>
<path opacity="0.29" d="M337.355 223.862C342.968 221.787 341.587 217.39 336.68 215.985C331.574 214.523 331.655 220.888 330.928 224.36C328.572 225.866 332.637 222.949 323.906 232.169C323.044 233.079 323.282 232.958 323.456 232.261C324.278 228.966 323.842 218.702 322.358 218.277C320.86 217.848 309.46 229.946 314.64 241.788C310.268 246.81 306.881 250.139 300.628 253C274.82 264.799 297.617 259.057 293.702 236.264C293.06 232.406 282.686 243.188 283.805 256.923C284.226 263.244 283.629 262.356 281.896 264.972C277.321 271.801 280.015 274.172 278.279 266.433C278.155 265.849 271.604 244.406 272.747 242.936C275.136 239.922 303.754 227.138 303.94 205.798C303.98 199.925 305.304 200.367 304.323 199.64C303.173 198.704 300.349 201.162 297.1 202.959C283.49 210.641 275.538 214.758 272.043 230.789C273.693 212.266 281.278 199.214 283.556 198.625C305.65 192.902 310.362 166.027 306.212 168.354C300.112 171.81 293.442 173.995 288.301 178.706C279.826 186.42 280.864 197.168 279.898 198.679C276.759 203.61 274.148 209.13 272.374 215.097C273.407 205.977 277.075 203.942 275.293 187.016C274.435 178.681 272.737 175.596 273.893 171.754C274.142 171.043 273.787 170.584 273.23 170.425C271.985 170.068 272.55 170.298 268.186 178.566C261.181 191.555 257.843 204.715 270.777 219.934C271.475 220.986 269.834 222.744 269.702 233.032C269.546 247.216 274.092 240.916 257.703 229.239C240.778 217.134 243.468 214.968 241.564 215.47C240.399 215.726 238.182 222.016 244.132 233.037C256.352 255.873 284.083 258.866 274.806 286.245C272.021 294.468 266.108 302.593 257.288 309.088C251.977 312.901 265.782 304.113 264.646 288.85C264.108 280.999 259.415 273.604 256.692 268.4C249.102 254.027 249.667 242.364 246.93 245.21C238.401 253.583 231.998 263.046 231.169 274.464C230.701 283.031 233.852 287.384 238.582 294.474C243.538 301.609 247.711 310.53 242.612 316.728C242.092 316.929 241.338 317.245 239.93 317.677C239.581 318.544 239.141 319.354 238.614 320.106C238.688 320.086 238.763 320.07 238.837 320.05C239.147 321.206 241.591 320.083 242.605 319.397C246.602 316.846 249.146 317.146 257.394 311.587C259.276 311.749 268.785 302.804 274.098 300.75C279.674 298.694 283 300.184 289.449 300.108C322.085 299.973 330.944 264.748 325.341 269.222C318.461 274.061 308.545 275.44 299.862 277.138C283.634 280.243 278.728 284.062 277.619 285.268C277.859 284.807 278.192 283.907 278.335 282.44C278.321 281.844 279.977 275.054 280.771 272.508C283.893 262.696 288.619 260.739 297.549 256.842C302.775 254.636 301.451 254.548 305.645 255.608C310.275 256.742 316.057 258.818 320.892 258.628C326.03 258.447 329.331 254.414 326.916 253.722C321.042 252.191 313.538 250.986 307.765 251.385C314.742 246.503 309.861 246.507 326.353 243.81C332.391 242.829 336.726 241.097 338.165 236.078C338.257 235.742 337.932 235.259 337.413 235.11C336.968 234.983 330.053 235.576 326.067 236.38C320.242 237.555 318.643 240.174 325.931 232.56C335.442 222.626 330.18 226.532 337.355 223.862Z" fill="#FC8686"/>
<path d="M190.746 166.248C196.748 169.822 200.35 172.194 205.892 178.86C209.094 182.714 213 188.433 212.981 188.405C232.1 215.699 236.554 217.829 237.127 219.97C240.471 232.685 226.239 234.034 200.925 243.961C194.515 246.476 157.207 265.274 154.902 265.274C154.465 265.274 154.164 264.855 154.318 264.431C154.485 263.972 164.229 259.936 164.2 259.948C161.708 257.517 160.31 254.227 158.454 251.391C158.115 250.878 158.963 250.186 159.429 250.775C177.379 241.609 183.825 222.401 204.245 222.401C210.516 222.401 211.581 224.517 205.818 220.003C200.684 215.981 194.158 211.153 189.261 207.643C182.985 203.144 178.373 196.942 172.879 194.103C171.512 193.42 170.643 193.356 170.903 192.632C171.013 192.324 171.37 192.161 171.657 192.275C181.504 196.081 175.535 200.731 174.408 178.543C174.081 172.135 174.683 165.373 176.951 159.316C177.944 156.66 178.02 157.634 177.189 156.293C177.047 156.06 177.144 155.661 177.459 155.507C179.357 154.584 175.578 157.217 190.746 166.248Z" fill="#F70F47"/>
<path opacity="0.2" d="M190.48 166.515C196.482 170.089 200.084 172.461 205.626 179.126C208.829 182.981 212.735 188.7 212.715 188.672C231.834 215.966 236.288 218.096 236.862 220.237C240.205 232.952 225.973 234.301 200.659 244.228C194.249 246.743 156.941 265.541 154.637 265.541C154.199 265.541 153.899 265.122 154.052 264.698C154.22 264.239 163.963 260.203 163.934 260.215C161.442 257.784 160.044 254.494 158.189 251.658C157.85 251.145 158.697 250.452 159.163 251.042C177.114 241.875 183.559 222.668 203.98 222.668C210.251 222.668 211.315 224.784 205.553 220.27C200.418 216.248 193.892 211.42 188.996 207.909C182.719 203.411 178.108 197.209 172.614 194.369C171.247 193.686 170.378 193.623 170.638 192.899C170.748 192.591 171.104 192.428 171.391 192.542C181.238 196.348 175.27 200.998 174.143 178.809C173.816 172.401 174.418 165.64 176.686 159.583C177.679 156.926 177.755 157.901 176.924 156.56C176.781 156.327 176.879 155.928 177.194 155.774C179.092 154.851 175.313 157.484 190.48 166.515Z" fill="url(#paint0_linear_2008_1575)"/>
<path d="M86.045 14.6193C86.0397 14.417 86.1675 14.2253 86.426 14.2571C88.8214 14.5394 91.2516 14.8136 93.5513 15.5778C95.7683 16.3102 97.6388 17.6044 99.6239 18.7892C101.875 20.1287 104.218 20.9168 106.866 20.624C109.518 20.331 112.02 19.1408 114.228 17.6948C115.22 17.0449 116.158 16.3261 117.069 15.575C119.8 13.3169 122.278 10.7337 125.185 8.69413C128.657 6.25761 132.651 4.94755 136.91 5.14185C141.322 5.34161 145.556 7.01395 148.964 9.80183C149.106 9.70598 149.297 9.69269 149.452 9.84714C150.678 11.0668 149.5 12.4329 148.567 13.426C146.62 15.495 145.026 17.7133 143.662 20.211C141.072 24.9535 139.204 30.1169 135.897 34.4443C132.985 38.2523 128.724 41.3491 123.768 41.4876C121.356 41.5543 119.259 40.6727 117.103 39.7036C115.896 39.1577 114.647 38.5904 113.312 38.4573C111.697 38.2976 110.551 38.9845 109.288 39.8713C108.393 40.5024 107.455 41.1017 106.325 41.1574C104.907 41.2267 103.493 40.6008 102.2 40.1028C99.1997 38.9444 96.3246 37.4958 93.5935 35.7997C93.5135 35.7518 93.4338 35.7012 93.3538 35.6505C93.0606 35.4668 93.1166 35.022 93.4497 34.9209C95.9039 34.1672 98.0728 32.8704 99.8741 31.097C96.9591 31.5843 94.1612 29.3582 92.7783 26.7991C90.6733 22.9059 90.4627 17.4736 86.1993 15.1116C85.9918 14.9975 85.9652 14.7873 86.045 14.6193Z" fill="#660909"/>
<path d="M165.705 35.5458C165.713 35.5178 163.678 55.1326 163.228 56.445C159.566 66.7726 153.886 67.1234 168.351 72.7644C185.552 79.4728 184.229 69.011 183.09 63.533C180.012 48.1393 188.881 37.5906 179.555 36.1873C168.55 34.5316 167.385 29.6652 165.705 35.5458ZM182.546 46.4584C182.501 46.2126 182.504 46.2285 182.546 46.4584V46.4584ZM189.031 99.1893C189.116 99.0634 189.151 99.0031 189.031 99.1893V99.1893Z" fill="url(#paint1_linear_2008_1575)"/>
<path d="M188.819 6.21354C188.819 6.21354 186.892 3.8304 182.765 2.45533C178.638 1.08025 164.512 -2.58614 157.266 3.00526C150.02 8.59667 149.011 22.2547 149.561 25.7379C150.112 29.2211 155.046 35.8548 156.532 37.6543C159.788 41.5959 165.063 43.0625 165.063 43.0625C165.063 43.0625 165.488 34.5509 167.377 32.6769C169.521 30.5504 179.188 30.1381 179.188 30.1381L188.819 6.21354Z" fill="#660909"/>
<path d="M196.769 28.0135C197.233 30.8856 200.117 32.6677 200.591 34.4423C201.046 36.1434 196.782 35.9617 196.862 37.1443C196.957 38.5524 198.045 39.3275 197.907 40.4503C197.833 41.0506 197.098 41.4558 196.79 41.7369C199.478 45.0612 194.197 42.9367 195.234 46.818C195.361 47.2944 196.815 52.5304 190.397 52.6405C186.559 52.7088 176.389 49.1955 173.296 44.6916C171.61 42.2648 171.496 38.2492 172.063 38.4001C167.539 37.1956 166.523 32.314 167.172 28.7627C168.015 24.1167 174.784 28.4407 177.885 26.1029C182.339 22.4954 177.734 16.1414 182.388 9.92229C183.149 8.90973 186.431 5.11475 187.141 5.83265C190.351 6.40584 193.653 10.7726 195.34 13.5472C199.977 21.1891 196.451 26.0498 196.769 28.0135Z" fill="#F07E6A"/>
<path d="M187.331 5.93313C187.637 5.98769 187.943 6.08615 188.249 6.20501C184.205 9.59407 182.725 14.4446 183.027 19.7788C183.172 22.3453 184.616 25.7543 183.09 28.0558C182.037 29.6442 181.418 31.2202 181.633 33.3077C181.763 34.5775 181.513 37.0899 181.539 38.339C181.672 44.5173 176.2 43.9465 191.795 51.8954C187.343 51.499 177.297 48.1821 174.377 43.9297C172.691 41.5029 173.682 37.8669 174.022 37.3895C173.048 38.0685 171.317 36.8128 170.725 36.3663C168.722 34.8557 167.72 33.1715 168.221 30.4302C169.063 25.7842 171.559 30.1324 174.66 27.7946C179.114 24.187 177.868 15.6929 182.521 9.47402C183.283 8.46145 186.62 5.21522 187.331 5.93313Z" fill="url(#paint2_linear_2008_1575)"/>
<path d="M195.037 22.0886C191.414 22.0335 190.458 21.5889 188.436 24.5424L188.744 25.3775C192.128 23.0772 191.558 23.9865 195.295 23.8435C195.295 23.8435 195.327 22.4976 195.037 22.0886Z" fill="#660909"/>
<path d="M194.108 28.648C194.017 29.1168 193.547 28.7566 192.771 28.8805C191.653 29.0589 189.955 29.302 189.977 29.294C189.867 29.1281 190.128 28.4129 190.689 27.9944C191.639 27.2855 193.531 25.9597 194.464 26.6902C194.7 26.875 194.104 28.6693 194.108 28.648Z" fill="#660909"/>
<path d="M174.291 31.5566C174.679 30.2301 173.788 28.8439 171.136 28.8451C169.482 28.8458 168.957 29.1027 168.935 30.0633C168.871 32.8709 170.281 34.1452 172.491 36.026C173.095 36.5394 174.589 36.4638 174.731 35.7024C174.853 35.0507 175.185 35.1651 174.536 34.0932C173.559 32.4795 173.825 33.1518 174.291 31.5566Z" fill="url(#paint3_linear_2008_1575)"/>
<path d="M149.969 9.54456C149.969 9.54456 147.68 9.92486 145.792 7.76996C143.905 5.6153 140.277 2.72114 137.321 2.62458C134.365 2.52802 130.194 4.79514 127.47 6.77329C124.322 9.05939 122.158 12.754 119.422 10.0938C116.686 7.43355 114.355 1.6355 114.355 1.6355C114.355 1.6355 113.123 4.13203 112.894 5.58066C112.664 7.02928 112.126 11.3059 113.184 13.4221C113.995 15.0456 115.049 17.4759 118.274 19.0999C120.753 20.3482 123.762 20.8035 127.816 18.6607C131.87 16.5182 133.212 10.9766 136.464 10.3775C139.717 9.77848 139.984 9.26389 142.825 10.0848C145.667 10.9056 149.653 11.5362 149.653 11.5362L149.969 9.54456Z" fill="#660909"/>
<path d="M151.411 10.1686C150.35 11.0576 149.924 12.4756 150.284 13.8068C150.404 14.2483 151.091 14.0611 150.971 13.6175C150.672 12.5126 151.041 11.4035 151.915 10.6716C152.267 10.3774 151.761 9.8761 151.411 10.1686Z" fill="#F07E6A"/>
<path d="M151.546 9.79229C149.253 9.0675 148.976 13.0124 150.397 14.0304C150.77 14.2978 151.126 13.6807 150.756 13.416C149.951 12.839 149.968 10.0397 151.357 10.4786C151.795 10.617 151.982 9.93013 151.546 9.79229Z" fill="#F07E6A"/>
<path d="M152.855 8.44405L148.059 7.71167C148.059 7.71167 147.526 7.84476 146.993 9.44261C146.46 11.0402 146.527 13.2374 146.527 13.9031C146.527 14.5688 146.793 15.3012 146.793 15.3012L150.39 15.8338C150.39 15.8338 151.056 12.7714 151.456 11.9059C151.856 11.0405 152.855 8.44405 152.855 8.44405Z" fill="#FDACA4"/>
<path d="M131.56 304.521C127.541 306.021 117.67 295.093 120.865 278.332C120.872 278.296 122.26 271.715 122.263 271.708L122.263 271.706H122.263V271.705C123.278 265.837 122.219 253.249 126.464 249.776C126.838 249.471 126.901 249.387 126.978 249.46C128.848 249.023 131.863 249.752 133.02 251.456C133.138 251.628 130.722 253.01 130.245 256.964C129.936 259.519 130.728 263.443 130.105 269.443C129.137 278.741 122.3 291.681 128.223 300.14C129.143 301.427 131.517 303.745 131.523 303.751C131.799 303.973 132.048 304.023 132.049 304.182C132.048 304.404 131.506 304.541 131.56 304.521Z" fill="#F7EADA"/>
<path d="M149.53 274.048C149.654 271.341 145.399 272.098 144.781 272.054C144.788 272.055 144.389 272.02 144.101 272.033C144.309 271.196 140.003 275.866 138.769 277.561C137.083 279.879 133.349 287.01 132.988 287.9C131.807 290.82 133.049 292.138 133.876 292.152C134.953 292.168 136.631 289.741 138.204 287.435C144.11 278.776 149.409 276.521 149.53 274.048ZM135.334 290.997L135.334 290.997L135.334 290.997L135.334 290.998C135.333 290.999 135.333 290.998 135.333 290.999L135.333 290.999L135.332 291.001L135.331 291C135.298 291.039 135.308 291.027 135.339 290.991L135.336 290.996L135.334 290.997Z" fill="#FE7B7B"/>
<path d="M144.626 272.485C144.359 270.875 138.846 267.76 138.498 264.132C138.197 260.6 140.241 258.771 140.251 258.683C140.301 258.249 139.558 259.23 139.333 259.602C138.428 261.087 135.697 260.789 133.861 263.823C131.84 267.166 129.858 277.696 129.926 282.515C129.969 285.589 130.511 288.778 132.43 291.182C132.924 291.801 133.598 292.558 134.235 292.868C136.026 293.739 135.795 291.447 136.147 290.275C136.354 289.579 136.591 289.553 136.444 289.458C136.363 289.407 136.322 289.475 136.11 289.738C134.96 291.16 134.513 290.034 134.834 288.195C135.371 285.202 136.718 283.394 138.443 279.929C141.247 274.294 144.915 274.23 144.626 272.485ZM131.02 288.272C131.049 288.349 131.035 288.314 131.03 288.299C131.032 288.307 131.022 288.279 131.02 288.272Z" fill="#FE7B7B"/>
<path d="M126.982 300.781C125.515 299.407 125.813 292.435 126.045 290.421C126.709 284.648 130.064 271.109 129.419 265.33C129.22 263.545 128.517 262.163 128.071 260.424C127.697 258.985 127.963 265.48 126.556 270.83C125.043 276.57 121.375 281.071 121.479 286.374C121.512 288.051 121.916 289.636 122.371 291.264C123.201 294.231 123.501 297.535 126.483 300.538C126.609 300.849 126.623 300.869 126.656 300.886C126.712 300.915 126.776 300.875 126.781 300.829C126.863 300.908 126.881 300.934 126.928 300.932C127.005 300.928 127.04 300.836 126.982 300.781ZM124.409 297.328C124.408 297.335 124.488 297.489 124.409 297.328V297.328Z" fill="#040031"/>
<path d="M127.725 248.811C126.904 248.824 125.861 250.273 125.303 251.034C123.513 253.473 122.887 257.964 122.814 260.983C122.649 267.931 123.214 266.74 121.512 274.051C121.158 275.57 120.49 278.42 120.305 280.026C120.154 281.34 120.126 283.244 120.202 283.314C120.257 283.365 120.343 283.333 120.352 283.256C120.353 283.246 120.353 283.23 120.351 283.15C120.615 282.966 120.719 280.175 121.252 277.906C121.819 275.498 123.703 269.903 123.619 264.202C123.583 261.673 123.583 258.968 124.044 256.136C124.685 252.179 125.775 251.104 126.933 249.945C128.023 248.853 127.955 248.974 127.96 248.926C127.954 248.977 128.043 248.806 127.725 248.811ZM123.06 259.44C123.054 259.517 123.056 259.471 123.06 259.44V259.44Z" fill="#040031"/>
<path d="M132.081 304.175C131.991 304.041 131.067 304.818 129.073 303.828C129.121 303.838 129.167 303.802 129.171 303.764C129.186 303.64 129.02 303.633 129.008 303.73C129.003 303.773 129.02 303.8 129.039 303.811C124.356 301.444 122.415 295.219 121.982 295.364C121.637 295.483 123.313 298.27 123.486 298.573C123.481 298.564 125.486 302.528 127.931 303.996C130.625 305.614 132.213 304.372 132.081 304.175ZM129.209 304.416C129.202 304.413 129.195 304.411 129.188 304.408C129.241 304.427 129.239 304.427 129.209 304.416ZM122.426 296.295C122.895 297.312 123.344 297.978 122.426 296.295V296.295Z" fill="#040031"/>
<path d="M145.284 254.474C145.162 253.947 144.749 253.804 144.756 253.739C144.773 253.593 143.497 253.451 143.504 253.396C143.504 253.389 143.776 253.491 139.813 252.262C133.589 250.328 131.821 251.084 130.465 254.527C128.455 259.634 129.165 263.466 128.582 268.532C127.591 277.132 120.37 286.563 124.713 296.951C126.355 300.876 129.257 306.093 132.805 303.73C133.423 303.317 133.74 302.516 133.934 301.8C133.969 301.67 135.781 292.634 135.521 292.307C135.515 292.299 133.053 291.875 132.407 288.846C131.757 285.801 133.301 283.68 133.983 281.383C135.374 276.695 134.623 273.322 134.713 270.444C134.816 267.11 136.044 265.188 138.436 261.809C139.556 260.23 140.573 258.522 143.26 257.039C143.123 257.115 145.59 255.79 145.284 254.474ZM128.439 302.874C128.44 302.874 128.44 302.874 128.44 302.874C128.439 302.874 128.439 302.874 128.439 302.873L128.438 302.872L128.437 302.872L128.435 302.871L128.436 302.87C128.351 302.787 128.44 302.867 128.439 302.874ZM123.539 290.162C123.538 290.178 123.542 290.427 123.539 290.162V290.162Z" fill="#FDACA4"/>
<path d="M133.399 287.303C133.298 287.365 133.206 287.215 133.305 287.152C133.405 287.09 133.497 287.24 133.399 287.303Z" fill="#E9E9E9"/>
<path d="M137.388 289.593C136.738 291.288 132.959 288.891 134.073 287.979C134.181 287.891 134.416 287.877 134.482 287.934C135.154 288.518 136.371 289.218 137.264 289.152C137.306 289.101 137.386 289.118 137.407 289.18C137.486 289.409 137.372 289.636 137.388 289.593Z" fill="#DED4D8"/>
<path d="M139.368 286.372C139.337 286.452 138.8 286.469 138.472 286.503C137.844 286.568 137.104 286.715 136.458 286.567C135.816 286.42 135.417 285.911 135.425 285.75C135.447 285.277 136.522 285.003 137.713 285.331C138.188 285.462 138.712 285.677 139.178 285.601C139.181 285.594 139.369 285.524 139.39 285.638C139.486 285.568 139.365 286.378 139.368 286.372Z" fill="#DED4D8"/>
<path d="M141.028 284.066C140.753 284.783 140.747 284.623 138.454 283.907C138.043 283.779 137.417 283.6 137.27 283.208C136.943 282.345 138.402 282.412 138.952 282.632C139.355 282.796 139.742 283.069 140.141 283.265C140.357 283.372 140.975 283.581 140.969 283.578C141.196 283.529 141.024 284.076 141.028 284.066Z" fill="#DED4D8"/>
<path d="M141.004 281.683C139.828 281.567 138.793 280.724 139.467 280.124C140.218 279.454 141.22 280.993 143.316 280.223C143.437 279.988 143.73 280.611 143.644 280.967C143.668 281.144 142.214 281.801 141.004 281.683Z" fill="#DED4D8"/>
<path d="M142.524 278.644C142.115 278.48 141.607 278.254 141.607 277.853C141.608 277.824 141.76 277.54 142.027 277.458C142.726 277.248 143.548 278.082 144.883 278.206C144.883 278.206 144.883 278.206 144.884 278.206V278.207L144.886 278.206C144.886 278.206 144.884 278.206 144.884 278.206C145.62 278.268 145.791 278.132 145.858 278.168C146.167 278.167 146.808 280.373 142.524 278.644Z" fill="#DED4D8"/>
<path d="M144.105 275.799C143.624 275.14 143.877 274.684 144.346 274.738C145.015 274.814 145.822 275.645 146.095 275.795C147.382 276.692 147.214 276.191 147.361 277.23C147.431 277.729 145.219 277.326 144.105 275.799Z" fill="#DED4D8"/>
<path d="M137.985 288.722C137.874 289.012 137.426 289.336 137.38 289.326C137.24 289.294 137.41 289.166 137.227 288.771C136.937 288.178 136.026 287.429 136.075 287.3C136.127 287.171 136.163 286.988 136.223 286.832C136.374 286.437 136.347 286.598 136.905 286.569C137.082 286.368 138.391 287.665 137.985 288.722Z" fill="#E9E9E9"/>
<path d="M138.943 286.703C138.98 286.606 139.021 286.733 139.115 286.499C139.301 285.956 138.691 284.933 138.224 284.69C138.065 284.584 137.862 284.581 138.388 284.109C138.821 283.721 138.377 283.917 139.558 284.254C139.704 284.295 139.889 284.855 139.931 284.998C140.368 286.506 138.802 287.07 138.943 286.703Z" fill="#E9E9E9"/>
<path d="M141.987 283.849C141.751 284.465 140.461 284.649 140.762 284.375C141.024 284.141 140.877 283.687 140.728 283.369L140.739 283.389C140.398 282.687 140.118 282.569 139.758 282.103C139.432 281.68 139.401 281.181 139.417 281.139C139.466 281.012 139.66 281.146 139.964 281.303C141.133 281.909 140.779 281.4 141.214 281.857C141.557 282.216 142.184 283.333 141.987 283.849Z" fill="#E9E9E9"/>
<path d="M142.557 281.886C142.639 281.672 143.011 281.669 143.268 280.998C143.915 279.196 141.182 277.948 143.851 279.075C143.841 279.101 144.184 279.131 144.205 279.215C144.853 281.935 142.359 282.402 142.557 281.886Z" fill="#E9E9E9"/>
<path d="M146.864 277.964C146.745 277.942 146.665 277.901 146.672 277.904C147.096 279.426 145.502 279.712 144.978 279.37C144.902 279.319 144.932 279.231 145 279.214C145.019 279.209 145.539 279.378 145.842 278.978C146.169 278.491 145.545 278.237 145.204 277.771C144.972 277.454 144.963 277.13 145.081 276.932C145.236 276.671 145.752 277.077 146.112 277.259C146.193 277.173 146.372 277.347 146.439 277.428C146.535 277.544 146.445 277.508 146.6 277.439C146.833 277.334 147.224 277.449 147.136 276.911C147.096 276.706 147.107 276.866 146.958 276.738C146.92 276.706 146.921 276.646 146.953 276.612C147.154 276.396 145.096 274.228 144.869 273.977C144.464 273.532 143.51 272.801 143.867 272.341C143.732 272.197 144.236 272.075 144.586 272.143C145.934 272.408 147.578 276.266 147.851 276.043C147.882 276.018 147.945 276.024 147.974 276.07C148.026 276.15 147.942 276.194 147.875 276.261C148.309 277.258 147.642 278.106 146.864 277.964Z" fill="#E9E9E9"/>
<path d="M155.183 85.4888C153.18 90.0005 143.049 94.2491 138.027 94.8202C145.258 122.279 157.253 141.003 154.657 141.832C152.843 142.419 151.302 143.736 150.094 145.232C150.689 146.276 149.612 146.836 149.04 145.788C148.854 145.695 148.784 145.076 146.334 141.412C143.114 136.597 135.785 127.236 127.543 107.722C124.904 101.473 120.677 94.3919 121.982 88.9588C122.901 85.0829 139.7 76.0998 148.29 69.3564C148.876 68.8966 161.257 60.8542 161.218 60.885C164.053 58.6404 157.887 79.4272 155.183 85.4888Z" fill="url(#paint4_linear_2008_1575)"/>
<path d="M165.443 55.1606C167.3 56.442 169.576 57.1179 169.008 56.9561C175.055 58.743 179.774 59.3841 182.196 61.1648C183.188 61.8948 184.73 70.331 190.257 81.3779L190.257 81.3793C193.476 88.3705 197.426 93.5126 198.942 96.0183C199.563 96.4129 199.812 102.515 194.534 109.027C189.434 115.321 189.758 111.832 188.882 118.362C187.553 128.264 178.172 139.296 177.924 146.601C177.875 148.751 172.218 146.514 160.365 145.361C157.534 145.095 155.878 145.308 154.131 144.735C152.668 144.255 152.98 143.926 152.805 144.393C152.7 144.675 152.517 144.854 152.223 144.854C150.703 144.854 152.896 142.698 153.653 134.994C154.525 125.441 152.641 115.969 151.301 104.489C149.086 85.5439 151.73 81.2275 159.47 62.6735C163.761 52.3995 164.805 54.6989 165.443 55.1606Z" fill="url(#paint5_linear_2008_1575)"/>
<path d="M153.236 140.524C162.979 144.775 177.793 145.614 177.581 147.395C178.752 148.578 178.929 165.909 178.896 168.675C178.489 203.107 180.642 211.329 175.432 228.382C173.24 235.555 169.835 242.416 168.505 249.848C167.58 255.32 168.602 255.215 167.411 257.808C164.93 263.22 158.427 267.498 144.917 278.765C134.108 287.781 135.247 287.907 127.238 295.151C107.317 313.17 114.378 306.315 103.311 318.804C103.161 318.974 102.969 318.919 102.901 319.03C102.064 320.339 91.3639 325.473 90.4096 324.234C89.5972 323.179 86.2598 309.513 88.1721 309.513C89.2615 309.513 96.6251 304.677 97.4952 303.922C122.429 282.304 121.619 269.248 132.057 259.615C136.156 255.832 146.885 253.07 148.758 248.395C148.864 241.91 147.468 235.365 146.559 224.588C145.585 213.026 147.563 209.632 145.628 204.275C143.591 199.083 138.625 195.485 135.788 190.357C132.075 183.632 130.712 175.896 132.518 168.198C136.233 152.365 148.446 150.668 152.095 140.514C152.3 139.947 153.058 139.972 153.236 140.524Z" fill="url(#paint6_linear_2008_1575)"/>
<path d="M127.439 342.933C127.136 347.21 113.091 351.649 99.1576 341.789C99.1279 341.769 93.7126 337.775 93.7074 337.77L93.705 337.769L93.7055 337.768L93.705 337.768C88.783 334.41 76.883 330.15 75.4828 324.849C75.3603 324.382 75.3104 324.29 75.408 324.251C75.7864 322.369 77.7022 319.93 79.7327 319.585C79.9383 319.549 80.194 322.32 83.5956 324.394C85.7944 325.735 89.6951 326.643 94.8998 329.699C102.963 334.438 111.907 346.024 122.065 344.149C123.619 343.847 126.715 342.65 126.723 342.647C127.039 342.488 127.188 342.282 127.333 342.347C127.535 342.441 127.435 342.99 127.439 342.933Z" fill="#F7EADA"/>
<path d="M107.153 313.948C104.741 312.712 103.664 316.894 103.367 317.438C103.371 317.432 103.173 317.781 103.066 318.047C102.39 317.511 104.855 323.364 105.886 325.19C107.296 327.685 112.239 334.039 112.9 334.737C115.068 337.022 116.783 336.44 117.139 335.694C117.601 334.722 116.088 332.188 114.641 329.8C109.208 320.838 109.354 315.084 107.153 313.948ZM116.693 333.889C116.693 333.889 116.693 333.888 116.693 333.888C116.693 333.888 116.693 333.889 116.693 333.889V333.89C116.694 333.89 116.693 333.89 116.694 333.891V333.891L116.695 333.892L116.695 333.893C116.716 333.939 116.71 333.925 116.689 333.882L116.693 333.887L116.693 333.889Z" fill="#FE7B7B"/>
<path d="M103.695 317.758C102.118 317.332 96.9942 321.053 93.5474 319.863C90.2067 318.671 89.3901 316.054 89.3134 316.008C88.9388 315.783 89.5237 316.865 89.7692 317.225C90.7459 318.663 89.3407 321.023 91.3417 323.951C93.5465 327.176 102.31 333.348 106.726 335.286C109.543 336.523 112.671 337.353 115.655 336.606C116.424 336.414 117.393 336.115 117.94 335.664C119.475 334.397 117.293 333.656 116.372 332.849C115.824 332.373 115.899 332.147 115.751 332.241C115.671 332.293 115.716 332.358 115.867 332.661C116.685 334.297 115.474 334.236 113.933 333.18C111.432 331.45 110.344 329.476 107.905 326.47C103.94 321.581 105.404 318.22 103.695 317.758ZM112.421 336.681C112.504 336.687 112.465 336.684 112.45 336.683C112.458 336.684 112.429 336.681 112.421 336.681Z" fill="#F70F47"/>
<path d="M122.134 345.543C120.274 346.307 114.051 343.142 112.313 342.096C107.333 339.096 96.3993 330.428 90.87 328.616C89.1629 328.056 87.612 328.122 85.8448 327.806C84.3791 327.548 90.4024 330.002 94.6895 333.502C99.2875 337.259 101.863 342.462 106.734 344.568C108.275 345.234 109.885 345.525 111.556 345.787C114.602 346.263 117.735 347.361 121.706 345.896C122.041 345.91 122.066 345.907 122.095 345.883C122.144 345.845 122.134 345.77 122.095 345.746C122.201 345.704 122.232 345.699 122.249 345.655C122.278 345.583 122.208 345.513 122.134 345.543ZM117.923 346.449C117.929 346.453 118.103 346.444 117.923 346.449V346.449Z" fill="#F70F47"/>
<path d="M75.1287 323.302C74.7997 324.053 75.6861 325.604 76.1471 326.426C77.6252 329.065 81.4539 331.499 84.1721 332.817C90.4295 335.851 89.5794 334.843 95.5286 339.424C96.7649 340.376 99.0827 342.167 100.468 343.001C101.601 343.684 103.324 344.5 103.418 344.46C103.487 344.431 103.494 344.339 103.428 344.299C103.419 344.294 103.404 344.288 103.331 344.256C103.273 343.94 100.775 342.687 98.9307 341.261C96.9734 339.746 92.6613 335.711 87.4368 333.422C85.1196 332.405 82.6571 331.282 80.2688 329.688C76.9327 327.463 76.4068 326.026 75.8314 324.493C75.2894 323.049 75.3715 323.16 75.3302 323.135C75.3742 323.162 75.2555 323.01 75.1287 323.302ZM82.8688 331.954C82.8961 331.97 82.937 331.991 82.8688 331.954V331.954Z" fill="#040031"/>
<path d="M127.34 342.315C127.181 342.341 127.504 343.504 125.776 344.907C125.805 344.867 125.792 344.81 125.759 344.79C125.652 344.726 125.576 344.874 125.66 344.924C125.697 344.946 125.729 344.943 125.746 344.93C121.649 348.206 115.175 347.387 115.127 347.841C115.093 348.204 118.325 347.836 118.673 347.805C118.664 347.806 123.104 347.628 125.455 346.014C128.046 344.236 127.575 342.276 127.34 342.315ZM126.368 345.026C126.363 345.032 126.357 345.037 126.352 345.043C126.391 345.002 126.39 345.003 126.368 345.026ZM116.16 347.824C117.28 347.819 118.073 347.688 116.16 347.824V347.824Z" fill="#040031"/>
<path d="M87.5705 309.685C87.0399 309.579 86.7377 309.894 86.6824 309.861C86.5564 309.785 85.8974 310.886 85.8504 310.858C85.8442 310.854 86.0498 310.649 83.2865 313.743C78.9428 318.599 78.897 320.52 81.4694 323.182C85.2849 327.129 89.0683 328.074 93.4383 330.706C100.857 335.175 106.447 345.655 117.707 346.017C121.961 346.153 127.915 345.679 127.236 341.473C127.117 340.739 126.519 340.119 125.947 339.645C125.843 339.559 118.369 334.162 117.963 334.262C117.953 334.264 116.545 336.327 113.52 335.658C110.478 334.985 109.188 332.701 107.38 331.128C103.689 327.918 100.306 327.201 97.7236 325.924C94.7307 324.447 93.4903 322.534 91.4074 318.956C90.4336 317.283 89.3007 315.649 89.0657 312.591C89.0773 312.747 88.8952 309.954 87.5705 309.685ZM124.644 345.086C124.644 345.086 124.645 345.086 124.645 345.086C124.644 345.086 124.644 345.086 124.643 345.086L124.642 345.087C124.642 345.087 124.642 345.087 124.641 345.087L124.64 345.089L124.639 345.088C124.528 345.131 124.638 345.083 124.644 345.086ZM111.038 344.266C111.052 344.275 111.28 344.374 111.038 344.266V344.266Z" fill="#FDACA4"/>
<path d="M112.526 334.115C112.541 334.232 112.366 334.254 112.35 334.139C112.335 334.021 112.51 334 112.526 334.115Z" fill="#E9E9E9"/>
<path d="M116.267 331.438C117.54 332.732 113.79 335.174 113.422 333.782C113.387 333.648 113.471 333.428 113.55 333.392C114.361 333.023 115.503 332.207 115.814 331.368C115.785 331.309 115.834 331.243 115.899 331.25C116.14 331.273 116.299 331.471 116.267 331.438Z" fill="#DED4D8"/>
<path d="M114.155 328.301C114.216 328.362 114.008 328.858 113.903 329.171C113.701 329.768 113.529 330.502 113.126 331.029C112.725 331.551 112.096 331.702 111.954 331.629C111.532 331.413 111.728 330.321 112.522 329.374C112.838 328.997 113.25 328.61 113.375 328.154C113.37 328.149 113.384 327.949 113.497 327.977C113.472 327.861 114.161 328.306 114.155 328.301Z" fill="#DED4D8"/>
<path d="M112.745 325.835C113.283 326.382 113.135 326.322 111.532 328.109C111.245 328.429 110.822 328.925 110.405 328.896C109.484 328.835 110.15 327.536 110.579 327.127C110.894 326.829 111.304 326.591 111.648 326.31C111.835 326.157 112.282 325.682 112.276 325.687C112.326 325.459 112.753 325.843 112.745 325.835Z" fill="#DED4D8"/>
<path d="M110.566 324.868C109.973 325.89 108.776 326.48 108.509 325.618C108.211 324.658 110.028 324.386 110.197 322.16C110.033 321.953 110.722 321.945 111.01 322.17C111.181 322.222 111.176 323.817 110.566 324.868Z" fill="#DED4D8"/>
<path d="M108.43 322.225C108.111 322.529 107.695 322.897 107.33 322.731C107.304 322.718 107.108 322.462 107.144 322.185C107.243 321.463 108.343 321.061 109.01 319.899C109.01 319.898 109.011 319.898 109.011 319.898L109.011 319.899L109.012 319.896C109.012 319.896 109.011 319.898 109.011 319.898C109.372 319.254 109.319 319.043 109.38 318.997C109.507 318.715 111.782 319.048 108.43 322.225Z" fill="#DED4D8"/>
<path d="M106.496 319.607C105.697 319.771 105.386 319.352 105.63 318.948C105.977 318.371 107.068 317.982 107.318 317.795C108.669 316.998 108.143 316.942 109.15 317.24C109.633 317.383 108.348 319.228 106.496 319.607Z" fill="#DED4D8"/>
<path d="M115.722 330.534C115.94 330.755 116.049 331.297 116.02 331.335C115.933 331.449 115.888 331.242 115.452 331.244C114.792 331.261 113.731 331.779 113.635 331.681C113.539 331.58 113.387 331.471 113.27 331.352C112.973 331.05 113.108 331.142 113.314 330.623C113.204 330.378 114.928 329.726 115.722 330.534Z" fill="#E9E9E9"/>
<path d="M114.281 328.826C114.208 328.752 114.341 328.767 114.167 328.584C113.75 328.19 112.565 328.32 112.15 328.644C111.988 328.745 111.9 328.928 111.689 328.253C111.516 327.698 111.509 328.183 112.306 327.25C112.404 327.134 112.991 327.198 113.139 327.22C114.693 327.448 114.557 329.106 114.281 328.826Z" fill="#E9E9E9"/>
<path d="M112.946 324.873C113.408 325.343 113.041 326.593 112.917 326.205C112.812 325.87 112.338 325.815 111.987 325.819L112.009 325.817C111.228 325.836 111.004 326.041 110.431 326.175C109.911 326.296 109.444 326.117 109.412 326.085C109.317 325.988 109.52 325.867 109.789 325.656C110.826 324.845 110.215 324.955 110.812 324.749C111.281 324.587 112.558 324.48 112.946 324.873Z" fill="#E9E9E9"/>
<path d="M111.394 323.54C111.233 323.377 111.386 323.038 110.881 322.525C109.509 321.189 107.238 323.156 109.372 321.197C109.392 321.217 109.562 320.917 109.647 320.934C112.393 321.473 111.782 323.935 111.394 323.54Z" fill="#E9E9E9"/>
<path d="M109.612 317.996C109.543 318.096 109.472 318.151 109.478 318.146C111.04 318.392 110.638 319.96 110.109 320.294C110.032 320.342 109.964 320.279 109.976 320.21C109.98 320.19 110.349 319.788 110.111 319.346C109.803 318.847 109.314 319.309 108.748 319.425C108.362 319.504 108.064 319.378 107.933 319.189C107.76 318.94 108.343 318.639 108.658 318.387C108.613 318.278 108.846 318.188 108.948 318.16C109.094 318.121 109.023 318.188 109.025 318.018C109.026 317.763 109.293 317.455 108.767 317.311C108.563 317.263 108.714 317.319 108.535 317.402C108.49 317.423 108.436 317.397 108.418 317.354C108.305 317.082 105.477 318.053 105.154 318.155C104.581 318.338 103.52 318.902 103.25 318.388C103.062 318.451 103.16 317.942 103.367 317.652C104.168 316.536 108.363 316.642 108.273 316.301C108.263 316.262 108.295 316.208 108.349 316.2C108.443 316.187 108.448 316.281 108.481 316.37C109.569 316.389 110.064 317.347 109.612 317.996Z" fill="#E9E9E9"/>
<path d="M157.472 67.1548C155.599 72.7884 154.018 78.5613 153.584 84.4754C153.177 90.0158 153.948 96.5367 158.717 100.141C162.771 103.205 168.23 102.493 172.662 100.714C177.477 98.7811 182.042 95.5204 185.26 91.431C187.208 88.9541 188.409 86.1513 188.815 83.0194C189.01 81.5191 189.056 80.0121 189.037 78.5027C189.407 79.3397 189.809 80.2033 190.257 81.0984L190.257 81.0998C193.476 88.091 197.426 93.2331 198.942 95.7389C199.563 96.1334 200.2 102.869 194.922 109.381C189.823 115.676 189.759 111.553 188.882 118.083C188.881 118.089 188.88 118.096 188.879 118.102C186.11 118.558 183.298 118.752 180.494 118.781C173.632 118.851 166.649 117.981 160.12 115.821C157.452 114.939 154.426 114.094 151.989 112.595C151.645 110 151.628 107.015 151.301 104.21C149.289 86.9999 151.286 81.8605 157.472 67.1548Z" fill="#F7EADA"/>
<path d="M152.425 113C158.024 116.347 164.625 117.98 171.037 118.791C176.879 119.529 182.943 119.641 188.785 118.686C187.171 128.431 178.165 139.164 177.923 146.322C177.874 148.471 172.217 146.235 160.364 145.082C157.533 144.816 155.877 145.029 154.131 144.456C152.667 143.975 152.979 143.647 152.804 144.113C152.7 144.396 152.516 144.574 152.222 144.574C150.702 144.574 152.895 142.419 153.652 134.715C154.292 127.708 153.448 120.744 152.425 113Z" fill="url(#paint7_linear_2008_1575)"/>
<path d="M173.041 62.8369C188.12 62.8369 183.298 94.5346 186.155 125.029C195.546 121.127 207.305 123.709 217.169 121.766C225.649 120.092 225.864 119.471 227.33 114.957C229.729 107.569 230.928 110.231 234.729 108.659C238.023 107.228 240.578 104.532 244.289 103.639C244.807 103.515 246.27 103.195 246.64 103.579C247.135 104.098 248.14 105.597 247.823 106.138C247.507 106.676 246.73 106.089 242.931 109.656C245.523 109.211 248.346 106.581 249.14 106.7C249.726 106.551 250.949 107.794 250.968 108.357C251.321 109.867 249.421 111.658 248.243 112.715C246.608 114.178 246.584 113.915 248.391 113.068C250.471 112.092 250.794 111.876 251.276 112.935C251.804 114.098 251.28 115.27 250.498 116.28C251.043 117.01 249.283 120.46 248.744 121.28C246.219 125.116 243.918 124.806 241.647 125.751C238.094 127.27 233.811 130.252 229.987 129.527C227.089 130.164 224.271 130.886 221.453 131.618C193.535 142.397 187.389 140.895 181.385 142.251C177.672 143.089 170.073 144.939 169.882 140.748C169.728 137.917 169.218 136.908 168.609 131.45C166.731 114.592 168.011 97.2404 165.734 80.1855C166.628 83.3031 161.459 62.8369 173.041 62.8369Z" fill="url(#paint8_linear_2008_1575)"/>
<path d="M126.959 295.431C117.341 304.129 114.013 307.031 111.897 309.11C108.348 306.319 105.135 303.102 102.36 299.523C122.088 280.663 122.115 268.811 131.778 259.894C135.877 256.111 146.606 253.35 148.479 248.674C148.584 242.189 147.189 235.644 146.28 224.868C145.306 213.305 147.283 209.912 145.349 204.555C143.312 199.363 138.346 195.764 135.508 190.636C131.796 183.912 130.433 176.175 132.239 168.477C135.954 152.645 148.167 150.947 151.815 140.793C152.021 140.226 152.778 140.251 152.957 140.803C162.699 145.054 177.514 145.893 177.302 147.674C178.473 148.857 178.65 166.188 178.617 168.954C178.21 203.386 180.362 211.609 175.152 228.661C172.961 235.834 169.555 242.696 168.226 250.127C167.301 255.599 168.323 255.494 167.132 258.087C164.651 263.499 158.148 267.777 144.638 279.044C133.829 288.06 134.968 288.186 126.959 295.431Z" fill="#F70F47"/>
<path d="M154.673 76.8574C155.805 74.8826 157.261 73.0534 158.652 71.2586C160.455 68.9327 162.325 66.5711 164.507 64.5842C167.248 62.0874 171.515 61.7534 174.923 62.9619C178.891 64.369 182.139 68.1237 184.587 71.4363C187.038 74.7533 189.704 78.8709 189.95 83.1067C189.977 83.562 190.689 83.5651 190.662 83.1067C190.436 79.2206 188.252 75.4864 186.107 72.35C183.773 68.9372 180.806 65.351 177.199 63.2445C173.838 61.2822 168.746 60.7892 165.346 63.0018C162.97 64.5482 161.088 67.0796 159.334 69.2556C157.479 71.5557 155.532 73.9274 154.058 76.4982C153.83 76.8963 154.445 77.2553 154.673 76.8574Z" fill="#F7EADA"/>
</g>
<defs>
<linearGradient id="paint0_linear_2008_1575" x1="136.178" y1="180.406" x2="203.27" y2="244.185" gradientUnits="userSpaceOnUse">
<stop stop-color="#0E1B7C"/>
<stop offset="1" stop-color="#0E1B7C"/>
</linearGradient>
<linearGradient id="paint1_linear_2008_1575" x1="196.772" y1="41.5257" x2="182.998" y2="59.5318" gradientUnits="userSpaceOnUse">
<stop stop-color="#C1433D"/>
<stop offset="1" stop-color="#F98877"/>
</linearGradient>
<linearGradient id="paint2_linear_2008_1575" x1="156.687" y1="27.1502" x2="205.246" y2="29.6933" gradientUnits="userSpaceOnUse">
<stop stop-color="#C1433D"/>
<stop offset="1" stop-color="#F98877"/>
</linearGradient>
<linearGradient id="paint3_linear_2008_1575" x1="172.892" y1="32.0695" x2="150.468" y2="44.738" gradientUnits="userSpaceOnUse">
<stop stop-color="#C1433D"/>
<stop offset="1" stop-color="#F98877"/>
</linearGradient>
<linearGradient id="paint4_linear_2008_1575" x1="161.947" y1="103.532" x2="121.738" y2="103.532" gradientUnits="userSpaceOnUse">
<stop stop-color="#C1433D"/>
<stop offset="1" stop-color="#F98877"/>
</linearGradient>
<linearGradient id="paint5_linear_2008_1575" x1="146.196" y1="157.42" x2="188.657" y2="60.124" gradientUnits="userSpaceOnUse">
<stop stop-color="#C1433D"/>
<stop offset="1" stop-color="#F98877"/>
</linearGradient>
<linearGradient id="paint6_linear_2008_1575" x1="179.003" y1="232.262" x2="87.5893" y2="232.262" gradientUnits="userSpaceOnUse">
<stop stop-color="#C1433D"/>
<stop offset="1" stop-color="#F98877"/>
</linearGradient>
<linearGradient id="paint7_linear_2008_1575" x1="152.156" y1="159.545" x2="194.062" y2="63.517" gradientUnits="userSpaceOnUse">
<stop stop-color="#C1433D"/>
<stop offset="1" stop-color="#F98877"/>
</linearGradient>
<linearGradient id="paint8_linear_2008_1575" x1="227.034" y1="152.84" x2="199.092" y2="105.587" gradientUnits="userSpaceOnUse">
<stop stop-color="#C1433D"/>
<stop offset="1" stop-color="#F98877"/>
</linearGradient>
<clipPath id="clip0_2008_1575">
<rect width="341" height="348" fill="white"/>
</clipPath>
</defs>
</svg>
