<svg width="33" height="32" viewBox="0 0 33 32" fill="none" xmlns="http://www.w3.org/2000/svg">
<path d="M16.4998 11C15.5109 11 14.5442 11.2932 13.7219 11.8427C12.8997 12.3921 12.2588 13.173 11.8804 14.0866C11.5019 15.0002 11.4029 16.0055 11.5958 16.9755C11.7888 17.9454 12.265 18.8363 12.9642 19.5355C13.6635 20.2348 14.5544 20.711 15.5243 20.9039C16.4942 21.0969 17.4996 20.9978 18.4132 20.6194C19.3268 20.241 20.1077 19.6001 20.6571 18.7779C21.2065 17.9556 21.4998 16.9889 21.4998 16C21.4958 14.6751 20.9678 13.4057 20.0309 12.4688C19.0941 11.532 17.8246 11.004 16.4998 11ZM27.2948 16C27.2922 16.4672 27.2579 16.9337 27.1923 17.3962L30.2354 19.7787C30.3679 19.8882 30.4572 20.0412 30.4873 20.2104C30.5175 20.3796 30.4864 20.5541 30.3998 20.7025L27.521 25.6725C27.4335 25.8196 27.2969 25.9312 27.1353 25.9875C26.9736 26.0439 26.7973 26.0415 26.6373 25.9806L23.0591 24.5431C22.3141 25.1169 21.4987 25.593 20.6329 25.96L20.0979 29.7588C20.0679 29.9289 19.9798 30.0834 19.8486 30.1958C19.7174 30.3082 19.5513 30.3715 19.3785 30.375H13.621C13.4514 30.3717 13.288 30.311 13.1573 30.2028C13.0266 30.0946 12.9365 29.9454 12.9016 29.7794L12.3666 25.9806C11.4984 25.6179 10.6825 25.141 9.94039 24.5625L6.36226 26C6.20232 26.0609 6.02603 26.0634 5.86439 26.0072C5.70276 25.9509 5.56612 25.8395 5.47851 25.6925L2.59976 20.7231C2.51311 20.5747 2.48207 20.4003 2.51218 20.231C2.54229 20.0618 2.6316 19.9088 2.76414 19.7994L5.80726 17.4169C5.74236 16.9473 5.70812 16.474 5.70476 16C5.70736 15.5328 5.74161 15.0663 5.80726 14.6038L2.76414 12.2212C2.6316 12.1118 2.54229 11.9588 2.51218 11.7896C2.48207 11.6204 2.51311 11.4459 2.59976 11.2975L5.47851 6.3275C5.56603 6.18037 5.70262 6.06882 5.86426 6.01246C6.02591 5.9561 6.20225 5.95855 6.36226 6.01937L9.94039 7.45687C10.6855 6.88313 11.5008 6.40698 12.3666 6.04L12.9016 2.24125C12.9316 2.07109 13.0197 1.91662 13.1509 1.80422C13.2821 1.69181 13.4483 1.62847 13.621 1.625H19.3785C19.5481 1.6283 19.7116 1.68899 19.8422 1.79717C19.9729 1.90535 20.063 2.05462 20.0979 2.22062L20.6329 6.01937C21.5022 6.38186 22.3192 6.85878 23.0623 7.4375L26.6373 6C26.7972 5.93912 26.9735 5.93658 27.1351 5.99282C27.2968 6.04906 27.4334 6.16048 27.521 6.3075L30.3998 11.2775C30.4864 11.4259 30.5175 11.6004 30.4873 11.7696C30.4572 11.9388 30.3679 12.0918 30.2354 12.2013L27.1923 14.5837C27.2571 15.0531 27.2914 15.5262 27.2948 16Z" fill="#FF3225"/>
</svg>
