<svg width="33" height="32" viewBox="0 0 33 32" fill="none" xmlns="http://www.w3.org/2000/svg">
<path fill-rule="evenodd" clip-rule="evenodd" d="M14.0363 11.6491C14.9333 11.1411 15.9654 10.9229 16.9913 11.0242L16.893 12.0194L16.993 11.0244C18.1425 11.1398 19.2168 11.6492 20.0338 12.4662C20.8507 13.2831 21.3601 14.3574 21.4755 15.5069L21.4757 15.5086C21.577 16.5345 21.3588 17.5666 20.8508 18.4636C20.3429 19.3607 19.5701 20.0788 18.6383 20.5197C17.7065 20.9605 16.6611 21.1026 15.6454 20.9265C14.6297 20.7503 13.6933 20.2645 12.9644 19.5355C12.2354 18.8066 11.7496 17.8702 11.5735 16.8545C11.3973 15.8388 11.5394 14.7935 11.9802 13.8616C12.4211 12.9298 13.1392 12.157 14.0363 11.6491ZM16.7939 13.0145C16.1787 12.9539 15.5597 13.0848 15.0217 13.3895C14.4835 13.6942 14.0526 14.1579 13.7881 14.717C13.5236 15.2761 13.4383 15.9033 13.544 16.5127C13.6497 17.1221 13.9412 17.684 14.3786 18.1213C14.8159 18.5587 15.3778 18.8502 15.9872 18.9559C16.5966 19.0616 17.2238 18.9763 17.7829 18.7118C18.342 18.4473 18.8057 18.0164 19.1105 17.4782C19.415 16.9403 19.546 16.3214 19.4855 15.7063C19.416 15.016 19.1101 14.3709 18.6195 13.8804C18.129 13.3899 17.4841 13.084 16.7939 13.0145Z" fill="black"/>
<path fill-rule="evenodd" clip-rule="evenodd" d="M12.7569 29.9847C13.0532 30.2306 13.4245 30.3683 13.8095 30.375L19.2154 30.3752C19.6005 30.3686 19.9717 30.2308 20.2681 29.9849C20.5644 29.739 20.7682 29.3995 20.8457 29.0223C20.85 29.0017 20.8536 28.9809 20.8565 28.96L21.276 25.9746L21.2769 25.9727L21.2785 25.9713L21.2835 25.9689C21.7983 25.7204 22.2925 25.431 22.7611 25.1036L25.5841 26.2399C25.9528 26.3803 26.3594 26.386 26.7319 26.2561C27.1045 26.1262 27.4194 25.869 27.6209 25.5298L27.6271 25.5194L30.2988 20.8967L30.2997 20.8952C30.4984 20.5527 30.5694 20.1507 30.4999 19.7608C30.4303 19.3703 30.2244 19.0171 29.9188 18.7642L29.8988 18.7481L27.5149 16.8764L27.5139 16.8751L27.5137 16.8736L27.5145 16.8656C27.5388 16.5833 27.5544 16.2939 27.5544 15.9983C27.5544 15.7061 27.5398 15.4214 27.5146 15.1421L29.9021 13.2666C29.9116 13.2592 29.9209 13.2516 29.9301 13.2438C30.2305 12.9898 30.432 12.6381 30.4992 12.2503C30.5663 11.863 30.4951 11.4645 30.298 11.1244L27.6196 6.49009C27.4182 6.15061 27.1035 5.89313 26.7308 5.76297C26.3582 5.63281 25.9516 5.63836 25.5827 5.77864L25.5646 5.78573L22.762 6.91428L22.7586 6.91473L22.7555 6.91354L22.7509 6.91035C22.2818 6.58731 21.7889 6.30028 21.2764 6.0517L20.8559 3.05919C20.8543 3.04816 20.8526 3.03716 20.8507 3.02619C20.7832 2.63985 20.5836 2.28895 20.286 2.03346C19.9885 1.77797 19.6114 1.63375 19.2193 1.62545L19.1981 1.62522H13.8056C13.4135 1.63353 13.0365 1.77775 12.7389 2.03324C12.4413 2.28873 12.2417 2.63963 12.1742 3.02597C12.1723 3.03694 12.1706 3.04794 12.169 3.05896L11.7485 6.05148C11.236 6.30006 10.7431 6.58709 10.274 6.91013L10.2694 6.91331L10.2663 6.9145L10.263 6.91406L7.46032 5.78551L7.44221 5.77842C7.07329 5.63814 6.66669 5.63259 6.29408 5.76274C5.92146 5.8929 5.6067 6.15039 5.40537 6.48987L2.72687 11.1242C2.52985 11.4643 2.45865 11.8628 2.52575 12.2501C2.59292 12.6378 2.79439 12.9895 3.09485 13.2436C3.10403 13.2514 3.11335 13.259 3.1228 13.2664L5.51034 15.1419C5.48516 15.4212 5.47054 15.7058 5.47054 15.9981C5.47054 16.2937 5.48609 16.5831 5.51046 16.8654L5.51122 16.8734L5.51098 16.8749L5.51005 16.8761L3.12612 18.7478L3.10609 18.764C2.8005 19.0169 2.59458 19.37 2.525 19.7606C2.45552 20.1505 2.52648 20.5524 2.72524 20.895L2.72611 20.8965L5.39781 25.5192L5.404 25.5296C5.60557 25.8688 5.92038 26.126 6.29297 26.2559C6.66556 26.3857 7.0721 26.3801 7.44085 26.2397L10.2638 25.1034C10.7324 25.4308 11.2266 25.7202 11.7415 25.9687L11.7464 25.9711L11.7481 25.9724L11.7489 25.9744L12.1684 28.9598C12.1713 28.9807 12.1749 29.0014 12.1792 29.0221C12.2568 29.3993 12.4605 29.7388 12.7569 29.9847ZM14.1091 3.625L13.7291 6.32904C13.6839 6.65333 13.5594 6.96242 13.3669 7.22732C13.1743 7.49248 12.9193 7.70612 12.6246 7.84939C12.2028 8.05384 11.7962 8.29041 11.4101 8.55615C11.1383 8.74482 10.8242 8.86341 10.4955 8.90132C10.1657 8.93937 9.83157 8.895 9.52312 8.77219L9.51951 8.77075L6.9866 7.75081L4.59864 11.8824L6.74448 13.5681C7.00555 13.7728 7.2116 14.0393 7.34405 14.3435C7.47651 14.6476 7.53121 14.98 7.50323 15.3106L7.50272 15.3166C7.48198 15.5453 7.47054 15.7712 7.47054 15.9981C7.47054 16.2228 7.48235 16.4523 7.5028 16.6901C7.53322 17.0206 7.48103 17.3536 7.35089 17.659C7.22012 17.9658 7.01479 18.2352 6.75353 18.4426L6.74934 18.4459L4.59662 20.1361L6.98445 24.2675L9.51712 23.248C9.82496 23.1241 10.159 23.0787 10.4887 23.116C10.8184 23.1534 11.1337 23.2721 11.406 23.4616L11.4078 23.4629C11.7887 23.7291 12.1903 23.9644 12.6087 24.1665C12.9057 24.3084 13.1632 24.5213 13.3584 24.7864C13.5543 25.0523 13.6814 25.3625 13.7285 25.6893L13.7289 25.6927L14.1059 28.375L18.919 28.3752L19.296 25.6929L19.2965 25.6896C19.3435 25.3627 19.4706 25.0525 19.6665 24.7866C19.8617 24.5215 20.1192 24.3086 20.4162 24.1667C20.8347 23.9646 21.2362 23.7293 21.6171 23.4631L21.6189 23.4619C21.8913 23.2723 22.2065 23.1536 22.5362 23.1163C22.866 23.079 23.2 23.1243 23.5078 23.2482L26.0405 24.2677L28.4283 20.1363L26.2756 18.4461L26.2714 18.4428C26.0101 18.2354 25.8048 17.9661 25.674 17.6592C25.5439 17.3538 25.4917 17.0209 25.5221 16.6903C25.5426 16.4526 25.5544 16.223 25.5544 15.9983C25.5544 15.7715 25.5429 15.5456 25.5222 15.3168L25.5217 15.3108C25.4937 14.9802 25.5484 14.6479 25.6809 14.3437C25.8133 14.0395 26.0194 13.773 26.2804 13.5683L28.4263 11.8827L26.0383 7.75103L23.5054 8.77098L23.5018 8.77241C23.1933 8.89523 22.8592 8.9396 22.5294 8.90155C22.2008 8.86363 21.8866 8.74505 21.6148 8.55637C21.2287 8.29063 20.8221 8.05407 20.4004 7.84962C20.1056 7.70635 19.8506 7.4927 19.658 7.22755C19.4655 6.96264 19.3411 6.65355 19.2958 6.32926L18.9158 3.62522L14.1091 3.625Z" fill="black"/>
</svg>
