<svg width="33" height="32" viewBox="0 0 33 32" fill="none" xmlns="http://www.w3.org/2000/svg">
<path fill-rule="evenodd" clip-rule="evenodd" d="M16.5001 2C16.9333 2 17.3172 2.27893 17.4511 2.69091L20.4766 12H30.5001C30.9383 12 31.3255 12.2854 31.4552 12.704C31.585 13.1226 31.427 13.5769 31.0656 13.8247L22.9395 19.3969L26.0726 28.6802C26.2117 29.0925 26.0683 29.5474 25.7179 29.8053C25.3676 30.0633 24.8906 30.065 24.5383 29.8098L16.5001 23.985L8.46185 29.8098C8.10954 30.065 7.63259 30.0633 7.28221 29.8053C6.93183 29.5474 6.78845 29.0925 6.92758 28.6802L10.0607 19.3969L1.93455 13.8247C1.57311 13.5769 1.41516 13.1226 1.5449 12.704C1.67463 12.2854 2.06182 12 2.50007 12H12.5236L15.549 2.69091C15.6829 2.27893 16.0669 2 16.5001 2ZM16.5001 6.23535L14.2011 13.3091C14.0672 13.7211 13.6833 14 13.2501 14H5.72667L11.8156 18.1753C12.1847 18.4283 12.3407 18.8958 12.1976 19.3198L9.8239 26.3529L15.9133 21.9403C16.2634 21.6866 16.7368 21.6866 17.0868 21.9403L23.1762 26.3529L20.8026 19.3198C20.6595 18.8958 20.8155 18.4283 21.1845 18.1753L27.2735 14H19.7501C19.3169 14 18.9329 13.7211 18.799 13.3091L16.5001 6.23535Z" fill="black"/>
</svg>
